HIERARCHY
ROOT Hips
{
	OFFSET 0.00000 0.00000 0.00000
	CHANNELS 6 Xposition Yposition Zposition Zrotation Yrotation Xrotation 
	JOINT LHipJoint
	{
		OFFSET 0 0 0
		CHANNELS 3 Zrotation Yrotation Xrotation
		JOINT LeftHip
		{
			OFFSET 1.88772 -1.62769 0.85636
			CHANNELS 3 Zrotation Yrotation Xrotation
			JOINT LeftKnee
			{
				OFFSET 2.39836 -6.58946 0.00000
				CHANNELS 3 Zrotation Yrotation Xrotation
				JOINT LeftAnkle
				{
					OFFSET 2.78523 -7.65237 0.00000
					CHANNELS 3 Zrotation Yrotation Xrotation
					JOINT LeftToe
					{
						OFFSET 0.19551 -0.53715 1.90694
						CHANNELS 3 Zrotation Yrotation Xrotation
						End Site
						{
							OFFSET 0.00000 -0.00000 0.99735
						}
					}
				}
			}
		}
	}
	JOINT RHipJoint
	{
		OFFSET 0 0 0
		CHANNELS 3 Zrotation Yrotation Xrotation
		JOINT RightHip
		{
			OFFSET -1.74282 -1.62769 0.85636
			CHANNELS 3 Zrotation Yrotation Xrotation
			JOINT RightKnee
			{
				OFFSET -2.36062 -6.48575 0.00000
				CHANNELS 3 Zrotation Yrotation Xrotation
				JOINT RightAnkle
				{
					OFFSET -2.76258 -7.59014 0.00000
					CHANNELS 3 Zrotation Yrotation Xrotation
					JOINT RightToe
					{
						OFFSET -0.19308 -0.53048 2.03952
						CHANNELS 3 Zrotation Yrotation Xrotation
						End Site
						{
							OFFSET -0.00000 -0.00000 1.06031
						}
					}
				}
			}
		}
	}
	JOINT lowerback
	{
		OFFSET 0 0 0
		CHANNELS 3 Zrotation Yrotation Xrotation
		JOINT Chest
		{
			OFFSET -0.08299 2.03160 -0.30721
			CHANNELS 3 Zrotation Yrotation Xrotation
			JOINT Chest2
			{
				OFFSET -0.01030 2.00603 0.13891
				CHANNELS 3 Zrotation Yrotation Xrotation
				JOINT lowerneck
				{
					OFFSET 0 0 0
					CHANNELS 3 Zrotation Yrotation Xrotation
					JOINT Neck
					{
						OFFSET 0.04282 1.69578 0.19991
						CHANNELS 3 Zrotation Yrotation Xrotation
						JOINT Head
						{
							OFFSET -0.08665 1.66622 -0.03785
							CHANNELS 3 Zrotation Yrotation Xrotation
							End Site
							{
								OFFSET -0.03699 1.83329 -0.04094
							}
						}
					}
				}
				JOINT LeftCollar
				{
					OFFSET 0 0 0
					CHANNELS 3 Zrotation Yrotation Xrotation
					JOINT LeftShoulder
					{
						OFFSET 3.04219 1.50803 -0.05347
CHANNELS 3 Zrotation Xrotation Yrotation
						JOINT LeftElbow
						{
OFFSET 0 -5.791990 0.000000
CHANNELS 3 Zrotation Xrotation Yrotation
							JOINT LeftWrist
							{
OFFSET 0 -3.499080 0.000000
CHANNELS 3 Zrotation Xrotation Yrotation
								JOINT lhand
								{
									OFFSET 0 0 0
CHANNELS 3 Zrotation Xrotation Yrotation
									JOINT LFingers
									{
OFFSET 0 -0.593860 0.000000
CHANNELS 3 Zrotation Xrotation Yrotation
										End Site
										{
OFFSET 0 -0.478790 0.000000
										}
									}
								}
								JOINT LThumb
								{
OFFSET 0 0.000000 0.000000
CHANNELS 3 Zrotation Xrotation Yrotation
									End Site
									{
OFFSET 0 -0.486100 0.486100
									}
								}
							}
						}
					}
				}
				JOINT RightCollar
				{
					OFFSET 0 0 0
					CHANNELS 3 Zrotation Yrotation Xrotation
					JOINT RightShoulder
					{
						OFFSET -3.30316 1.18853 0.11175
CHANNELS 3 Zrotation Xrotation Yrotation
						JOINT RightElbow
						{
OFFSET 0 -5.737990 0.000000
CHANNELS 3 Zrotation Xrotation Yrotation
							JOINT RightWrist
							{
OFFSET 0 -3.579160 -0.000000
CHANNELS 3 Zrotation Xrotation Yrotation
								JOINT rhand
								{
									OFFSET 0 0 0
CHANNELS 3 Zrotation Xrotation Yrotation
									JOINT RFingers
									{
OFFSET 0 -0.615580 0.000000
CHANNELS 3 Zrotation Xrotation Yrotation
										End Site
										{
OFFSET 0 -0.496290 0.000000
										}
									}
								}
								JOINT RThumb
								{
OFFSET 0 0.000000 0.000000
CHANNELS 3 Zrotation Xrotation Yrotation
									End Site
									{
OFFSET 0 -0.503870 0.503870
									}
								}
							}
						}
					}
				}
			}
		}
	}
}
MOTION
Frames: 7
Frame Time: 0.008333333333333333
7.422804 17.094157 -14.192178 2.293217 176.501843 10.316547 0.000000 0.000000 0.000000 -9.286003 -22.614618 -38.101729 1.964157 8.790916 25.143466 -0.523109 14.132390 -11.903904 0.351949 -3.809511 -10.541658 0.000000 0.000000 0.000000 29.686082 11.603547 3.092349 -0.771990 -5.609523 15.655804 -0.972503 2.645840 -17.936043 -0.400302 -4.061808 11.250513 -3.048937 1.706955 -0.786842 -1.687130 2.364878 -3.352356 -0.078124 1.304616 -3.054790 7.864711 8.518522 -3.790899 -9.032618 11.557011 10.703217 -3.372418 5.417500 4.815611 0.000000 0.000000 0.000000 12.685542 17.504366 -25.256192 14.560923 -23.530539 3.048677 6.275751 -14.252735 18.093651 0.000000 0.000000 0.000000 -7.125000 0.000000 0.000000 -14.231625 12.191819 -11.266780 0.000000 0.000000 0.000000 -11.056012 9.378814 48.505894 -43.955425 -50.246163 -21.432646 -16.522005 -0.149470 32.502611 0.000000 0.000000 0.000000 7.125000 0.000000 0.000000 19.018440 62.594842 -8.287849
7.408912 17.064367 -14.549116 2.553009 176.159957 10.336521 0.000000 0.000000 0.000000 -10.893326 -19.932482 -38.906010 1.891168 8.635594 24.661873 -0.654507 15.523842 -12.606267 0.270737 -3.341625 -9.231870 0.000000 0.000000 0.000000 29.826009 10.474572 4.779826 -0.655627 -5.178116 14.417473 -0.913295 3.289226 -17.252641 -0.405594 -4.088397 11.325481 -2.997111 1.884887 -0.711734 -1.864677 2.604610 -3.496038 -0.302213 1.428248 -3.240712 8.461952 8.528656 -3.402344 -9.528950 11.582186 10.175640 -3.637375 5.453384 4.655852 0.000000 0.000000 0.000000 13.132022 17.297796 -25.002366 14.406054 -23.312212 2.986967 6.092186 -13.576311 17.532494 0.000000 0.000000 0.000000 -7.125000 0.000000 0.000000 -14.368459 12.749344 -11.209675 0.000000 0.000000 0.000000 -10.406331 9.951216 47.948224 -44.974121 -50.755606 -22.218761 -19.819349 2.802053 33.417055 0.000000 0.000000 0.000000 7.125000 0.000000 0.000000 16.093324 64.345324 -7.601682
7.386843 17.024924 -14.916880 3.093737 176.165903 10.577744 0.000000 0.000000 0.000000 -12.596088 -16.947410 -40.295232 2.001651 8.869214 25.387234 -0.644671 15.303144 -12.190270 0.414521 -4.126784 -11.434334 0.000000 0.000000 0.000000 30.184504 9.044733 6.549210 -0.491737 -4.493883 12.470851 -0.815556 3.475611 -16.242391 -0.285238 -3.433321 9.487642 -2.717967 1.824115 -1.014657 -1.629409 2.539675 -3.552596 -0.203597 1.389951 -3.125027 8.441891 8.781069 -2.766004 -10.181796 11.977692 9.365854 -3.841047 5.647446 4.378306 0.000000 0.000000 0.000000 12.857496 17.067026 -24.658424 14.395889 -23.297785 2.982906 6.425367 -13.398254 17.299479 0.000000 0.000000 0.000000 -7.125000 0.000000 0.000000 -14.160317 12.954921 -10.973229 0.000000 0.000000 0.000000 -10.391784 10.366918 48.012676 -45.610510 -51.064002 -22.712655 -22.084577 3.679388 31.844910 0.000000 0.000000 0.000000 7.125000 0.000000 0.000000 12.124289 63.423235 -5.421118
7.366325 16.973994 -15.284821 3.784229 176.323706 10.413190 0.000000 0.000000 0.000000 -14.436556 -13.892454 -41.321017 2.199792 9.270190 26.644471 -0.700818 15.030403 -9.281500 0.122269 -2.077328 -5.725050 0.000000 0.000000 0.000000 30.648224 7.183201 8.857925 -0.326567 -3.670821 10.152660 -0.667096 3.607571 -14.625159 -0.113484 -2.160258 5.949236 -2.238208 1.869202 -0.972069 -1.508554 2.590710 -3.424521 -0.345122 1.395007 -3.000891 7.887999 9.062494 -3.722064 -9.608426 12.327455 9.876113 -3.502560 5.791175 4.656931 0.000000 0.000000 0.000000 12.969697 16.520920 -24.681385 14.409795 -23.317508 2.988407 7.313717 -13.603026 18.471977 0.000000 0.000000 0.000000 -7.125000 0.000000 0.000000 -13.553144 11.751073 -10.823424 0.000000 0.000000 0.000000 -10.261732 10.859643 47.942978 -45.752617 -51.131871 -22.823228 -16.818966 0.474343 32.159090 0.000000 0.000000 0.000000 7.125000 0.000000 0.000000 18.400341 62.347494 -7.902637
7.346788 16.934156 -15.675241 3.517392 176.459050 10.308297 0.000000 0.000000 0.000000 -17.321923 -11.287881 -41.796755 2.361248 9.580889 27.630079 -0.668658 14.392563 -7.034191 0.033286 1.127401 3.099800 0.000000 0.000000 0.000000 29.941585 5.172818 10.383240 -0.251202 -3.224558 8.904629 -0.513523 4.180462 -12.754651 -0.154478 -2.529597 6.971980 -2.796938 1.923329 -1.103263 -1.656036 2.672832 -3.459345 -0.183021 1.454650 -2.983529 8.389534 9.337966 -3.137099 -10.068428 12.720720 9.561203 -3.718208 6.001671 4.561112 0.000000 0.000000 0.000000 13.128550 16.163509 -25.028032 14.617973 -23.611208 3.071345 7.435292 -14.154664 19.076634 0.000000 0.000000 0.000000 -7.125000 0.000000 0.000000 -13.463157 11.151365 -10.918740 0.000000 0.000000 0.000000 -9.911287 11.757975 47.584759 -45.920611 -51.211554 -22.954134 -17.006112 0.751997 32.244568 0.000000 0.000000 0.000000 7.125000 0.000000 0.000000 18.265608 62.475754 -7.898325
7.314440 16.912772 -16.078597 3.839141 176.821195 10.168597 0.000000 0.000000 0.000000 -18.488903 -10.472864 -41.471163 2.585024 9.990392 28.946091 -0.798285 15.656377 -7.437123 0.404127 4.050131 11.222066 0.000000 0.000000 0.000000 29.771449 3.170434 11.038352 -0.263668 -3.301396 9.119239 -0.390044 5.033458 -11.145297 -0.248986 -3.199198 8.834813 -2.854481 1.830913 -1.227242 -1.477841 2.560774 -3.592527 0.034702 1.407392 -3.060162 8.401250 9.571090 -2.799412 -10.082822 13.046949 9.699177 -3.712061 6.160500 4.579673 0.000000 0.000000 0.000000 12.993719 16.361147 -25.450620 15.201928 -24.426525 3.309087 7.596497 -14.917512 18.604002 0.000000 0.000000 0.000000 -7.125000 0.000000 0.000000 -13.368534 11.601337 -10.709550 0.000000 0.000000 0.000000 -9.725651 12.729338 47.652785 -45.003593 -50.769860 -22.241598 -18.050088 0.974034 30.495245 0.000000 0.000000 0.000000 7.125000 0.000000 0.000000 15.751710 61.064879 -6.260557
7.294049 16.878987 -16.480334 4.003221 177.283382 10.153979 0.000000 0.000000 0.000000 -19.177321 -10.288138 -41.211652 2.873303 10.486657 30.567860 -0.638717 14.243934 -8.158242 0.665087 5.215026 14.523031 0.000000 0.000000 0.000000 29.419454 1.421253 10.179762 -0.436634 -4.235684 11.741486 -0.284848 6.283879 -9.829858 -0.081018 -1.828569 5.032298 -3.082556 1.839713 -1.487903 -1.487662 2.587002 -3.553801 0.162503 1.426355 -2.884141 8.453647 9.687753 -3.008020 -10.313110 13.215789 9.698467 -3.765466 6.227234 4.649899 0.000000 0.000000 0.000000 13.175982 15.889296 -26.251508 15.764301 -25.199759 3.545144 7.884523 -15.913688 18.334888 0.000000 0.000000 0.000000 -7.125000 0.000000 0.000000 -13.187629 11.843590 -10.488847 0.000000 0.000000 0.000000 -9.299888 13.443507 47.165514 -43.970733 -50.253806 -21.444520 -19.580071 2.239601 30.105487 0.000000 0.000000 0.000000 7.125000 0.000000 0.000000 13.773819 61.062709 -5.446747
